<?xml version="1.0" encoding="UTF-8" standalone="no"?>
<svg
   xmlns:dc="http://purl.org/dc/elements/1.1/"
   xmlns:cc="http://creativecommons.org/ns#"
   xmlns:rdf="http://www.w3.org/1999/02/22-rdf-syntax-ns#"
   xmlns:svg="http://www.w3.org/2000/svg"
   xmlns="http://www.w3.org/2000/svg"
   xmlns:sodipodi="http://sodipodi.sourceforge.net/DTD/sodipodi-0.dtd"
   xmlns:inkscape="http://www.inkscape.org/namespaces/inkscape"
   sodipodi:docname="bomb.svg"
   inkscape:version="1.0rc1 (09960d6, 2020-04-09)"
   id="svg1247"
   version="1.1"
   viewBox="0 0 210 297"
   height="297mm"
   width="210mm">
  <defs
     id="defs1241">
    <filter
       style="color-interpolation-filters:sRGB"
       inkscape:label="Invert"
       id="filter1033"
       x="-4.7995545e-06"
       width="1.0000097"
       y="-4.8004458e-06"
       height="1.0000097">
      <feColorMatrix
         values="1 0 0 0 0 0 1 0 0 0 0 0 1 0 0 -0.21 -0.72 -0.07 2 0 "
         result="color2"
         id="feColorMatrix1031" />
      <feGaussianBlur
         stdDeviation="8.0103513e-05"
         id="feGaussianBlur1185" />
    </filter>
  </defs>
  <sodipodi:namedview
     inkscape:window-maximized="0"
     inkscape:window-y="25"
     inkscape:window-x="0"
     inkscape:window-height="785"
     inkscape:window-width="1252"
     showgrid="false"
     inkscape:document-rotation="0"
     inkscape:current-layer="layer1"
     inkscape:document-units="mm"
     inkscape:cy="560"
     inkscape:cx="400"
     inkscape:zoom="0.35"
     inkscape:pageshadow="2"
     inkscape:pageopacity="0.0"
     borderopacity="1.0"
     bordercolor="#666666"
     pagecolor="#ffffff"
     id="base" />
  <metadata
     id="metadata1244">
    <rdf:RDF>
      <cc:Work
         rdf:about="">
        <dc:format>image/svg+xml</dc:format>
        <dc:type
           rdf:resource="http://purl.org/dc/dcmitype/StillImage" />
        <dc:title></dc:title>
      </cc:Work>
    </rdf:RDF>
  </metadata>
  <g
     id="layer1"
     inkscape:groupmode="layer"
     inkscape:label="Layer 1">
    <path
       transform="matrix(0.26458333,0,0,0.26458333,108.0938,124.72574)"
       style="fill:#000000;fill-opacity:1;stroke:none;stroke-width:0.755906;stroke-miterlimit:4;stroke-dasharray:none;stroke-opacity:1;filter:url(#filter1033)"
       d="m 13.779526,40.026456 c -0.12928,-0.01836 -0.51695,-0.07033 -0.86159,-0.115475 C 8.0973057,39.279392 3.7694087,36.162451 1.5307387,31.709962 0.87038871,30.396585 0.36406871,28.768577 0.09991871,27.109426 c -0.13274,-0.833839 -0.13304,-3.264108 -4.7e-4,-4.151293 0.49425,-3.308471 1.94217999,-6.193313 4.28368699,-8.534832 2.42161,-2.421599 5.37809,-3.868415 8.7965803,-4.304774 2.11987,-0.270593 4.33206,-0.05572 6.43908,0.625427 l 0.83285,0.269242 0.89809,-0.8981 c 1.10788,-1.107905 1.51746,-1.33402 2.4164,-1.33402 0.89626,0 1.28584,0.216808 2.45366,1.365513 l 0.95353,0.937916 1.76233,-1.752661 c 1.89893,-1.888486 1.96394,-1.932974 2.63965,-1.806209 0.38557,0.07234 0.85409,0.540853 0.92643,0.926424 0.1268,0.67571 0.0822,0.740724 -1.80621,2.639643 l -1.75267,1.76234 0.93791,0.953526 c 1.14871,1.167821 1.36552,1.557399 1.36552,2.453668 0,0.899773 -0.22578,1.30818 -1.33812,2.420536 l -0.90222,0.902213 0.27172,0.825486 c 2.31525,7.033542 -0.91928,14.724184 -7.6069,18.086656 -1.28914,0.648162 -2.86388,1.149937 -4.36656,1.391351 -0.69192,0.111162 -3.06255,0.20464 -3.52468,0.138983 z M 6.7423157,26.158483 c 0.14896,-0.07068 0.36271,-0.248976 0.47502,-0.396211 0.17711,-0.232212 0.21288,-0.37972 0.26986,-1.112733 0.15104,-1.94339 0.83283,-3.494096 2.12894,-4.842253 1.2983303,-1.350466 2.9934903,-2.12448 4.9932203,-2.279903 0.73301,-0.05698 0.88052,-0.09275 1.11272,-0.269863 0.76811,-0.585865 0.64394,-1.715956 -0.23453,-2.134552 -0.54936,-0.261774 -2.6492,0.02346 -4.04755,0.549792 -2.5910503,0.975268 -4.8321603,3.216376 -5.8074303,5.807427 -0.41785,1.110145 -0.74049,2.985971 -0.64107,3.727213 0.10881,0.81095 1.01208,1.301644 1.75082,0.951083 z M 35.710886,14.886099 c -0.32567,-0.167623 -1.6567,-1.502997 -1.80081,-1.806681 -0.4639,-0.977598 0.41536,-2.030246 1.46137,-1.749547 0.27301,0.07326 0.50267,0.254321 1.17348,0.925118 0.89216,0.892165 1.07637,1.22878 0.96367,1.760915 -0.068,0.321105 -0.37445,0.725933 -0.66213,0.874699 -0.29314,0.151583 -0.83652,0.149429 -1.13558,-0.0046 z m 0.31167,-4.881846 c -0.37086,-0.09456 -0.65985,-0.320251 -0.8253,-0.64458 -0.1945,-0.381238 -0.19278,-0.721267 0.005,-1.121739 0.23443,-0.473136 0.47726,-0.61235 1.16775,-0.669515 0.64431,-0.05334 2.40713,-0.03073 2.78743,0.03576 0.45005,0.07867 0.90225,0.679794 0.8982,1.193958 -0.003,0.374933 -0.27067,0.845543 -0.59607,1.047817 -0.28866,0.179445 -0.37139,0.189053 -1.752,0.203483 -0.79697,0.0083 -1.55552,-0.01199 -1.68566,-0.04518 z m -9.08421,-3.890698 c -0.32567,-0.167623 -1.6567,-1.502997 -1.80081,-1.806681 -0.15105,-0.318295 -0.1514,-0.834707 -7.9e-4,-1.125975 0.14877,-0.287682 0.5536,-0.594134 0.8747,-0.662138 0.53214,-0.112699 0.86875,0.07152 1.76091,0.963682 1.06506,1.065055 1.2073,1.469564 0.76977,2.189037 -0.31554,0.518869 -1.05733,0.723341 -1.60379,0.442075 z m 7.47215,-0.05495 c -0.37602,-0.249888 -0.6408,-0.792874 -0.5804,-1.190227 0.0723,-0.475369 0.23919,-0.68448 1.70027,-2.130007 1.13926,-1.127135 1.41199,-1.357778 1.69594,-1.434239 0.41341,-0.111318 0.75276,-0.04737 1.08902,0.205225 0.45334,0.340551 0.61569,0.936651 0.40584,1.490055 -0.10791,0.284564 -2.76521,2.959858 -3.09573,3.116704 -0.37399,0.17747 -0.89872,0.152632 -1.21494,-0.057511 z m -3.63805,-1.182191 c -0.31628,-0.143508 -0.64425,-0.542884 -0.70292,-0.855966 -0.0261,-0.13874 -0.0362,-0.928291 -0.0227,-1.754556 0.0268,-1.644059 0.044,-1.70776 0.56386,-2.095869 0.30329,-0.226441 1.04625,-0.226441 1.34954,0 0.53384,0.398564 0.53928,0.421879 0.53928,2.305786 0,1.606633 -0.0104,1.724967 -0.16149,1.927993 -0.0889,0.118968 -0.25361,0.285082 -0.36622,0.369148 -0.25923,0.193545 -0.88233,0.247299 -1.19935,0.10346 z"
       id="path1029"
       inkscape:connector-curvature="0" />
  </g>
</svg>
